<?xml version="1.0" encoding="utf-8"?>
<!-- Generator: Adobe Illustrator 22.1.0, SVG Export Plug-In . SVG Version: 6.00 Build 0)  -->
<svg version="1.1" id="Layer_1" xmlns="http://www.w3.org/2000/svg" xmlns:xlink="http://www.w3.org/1999/xlink" x="0px" y="0px"
	 width="416.7px" height="111.7px" viewBox="0 0 416.7 111.7" style="enable-background:new 0 0 416.7 111.7;" xml:space="preserve"
	>
<style type="text/css">
	.st0{fill:#3B4950;}
	.st1{display:none;}
	.st2{display:inline;fill:#1A171B;}
	.st3{fill:#FDFEFF;stroke:#FDFEFF;stroke-miterlimit:10;}
</style>
<title>LOGO GF</title>
<circle class="st0" cx="66.3" cy="55.8" r="51.3"/>
<g id="Layer_3" class="st1">
	<path class="st2" d="M370.8,117.6"/>
	<path class="st2" d="M344.8,120.9"/>
	<path class="st2" d="M387.3,149.3"/>
</g>
<g>
	<path class="st3" d="M62.2,33.9c0.6,0,1.1,0.2,1.5,0.5c0.3,0.3,0.6,0.8,0.6,1.4c0,0.2-0.1,0.6-0.2,0.9l-17.6,42
		c-0.2,0.4-0.5,0.7-0.8,1c-0.3,0.2-0.7,0.3-1.1,0.3c-0.4,0-0.7-0.1-1.2-0.3c-0.3-0.2-0.6-0.5-0.7-0.9L25.2,36.9
		c-0.1-0.2-0.2-0.2-0.2-0.5c-0.1-0.2-0.1-0.3-0.1-0.5c0-0.6,0.2-1.1,0.7-1.4s0.9-0.5,1.3-0.5c0.9,0,1.6,0.5,2,1.4l16.5,39.3h-1.2
		l16.1-39.5C60.8,34.4,61.3,33.9,62.2,33.9z"/>
	<path class="st3" d="M91.4,34c3.2,0,6,0.6,8.5,1.8c2.4,1.2,4.4,2.9,6,5.1c1.6,2.2,2.8,4.6,3.6,7.4c0.7,2.7,1.2,5.6,1.2,8.7
		c0,4.2-0.7,8-2.1,11.5c-1.4,3.5-3.5,6.3-6.3,8.4c-2.8,2.1-6.5,3.1-10.8,3.1H74.6c-0.6,0-1.1-0.2-1.4-0.6c-0.4-0.4-0.6-0.8-0.6-1.4
		V36c0-0.5,0.2-1,0.6-1.4c0.3-0.4,0.8-0.6,1.4-0.6H91.4z M90.7,76.2c3.7,0,6.7-0.8,8.9-2.6c2.3-1.7,4-4.1,5-7
		c1.1-2.9,1.6-6.1,1.6-9.6c0-2.5-0.3-4.9-0.9-7.2c-0.6-2.3-1.5-4.4-2.7-6.1c-1.2-1.7-2.9-3.1-4.9-4.2c-2-1-4.4-1.6-7.1-1.6H76.3
		l0.5-0.5v39.4l-0.4-0.7H90.7z"/>
</g>
</svg>
